<svg xmlns:rdf="http://www.w3.org/1999/02/22-rdf-syntax-ns#" xmlns="http://www.w3.org/2000/svg" version="1.1" xmlns:cc="http://creativecommons.org/ns#" xmlns:dc="http://purl.org/dc/elements/1.1/" viewBox="0 0 100 100">
 <g transform="translate(0 -952.36)">
  <path d="m61.717 1020c0 .5071-.16664.9172-.49845 1.2316s-.76071.4724-1.2852.4724c-.47237 0-.86939-.1609-1.1925-.4854-.32457-.3232-.48540-.7289-.48540-1.2186 0-.4898.16663-.8911.49845-1.2056.33181-.3158.74333-.4723 1.2316-.4723.48975 0 .89982.1565 1.2316.4723.33326.3145.49990.7173.49990 1.2056zm-.31443 16.546h-2.8328v-12.744h2.8313v12.744zm18.877-9.0198c0 2.6748-.68101 4.8598-2.0445 6.5551-1.4678 1.8359-3.5051 2.7531-6.1089 2.7531-2.4647 0-4.4223-.8998-5.8727-2.7009-1.3475-1.6605-2.0199-3.7586-2.0199-6.2929 0-2.5864.69841-4.7455 2.0981-6.477 1.5026-1.8518 3.5123-2.7792 6.0292-2.7792 2.4821 0 4.4484.8911 5.9002 2.6748 1.3461 1.6432 2.0184 3.7327 2.0184 6.267zm-3.0153.1043c0-1.7475-.39267-3.2516-1.1795-4.5108-.90851-1.5026-2.1851-2.2546-3.8282-2.2546-1.6953 0-2.9979.7694-3.9064 2.3068-.76941 1.2592-1.1548 2.7894-1.1548 4.5904 0 1.7664.39267 3.2776 1.1795 4.5353.92589 1.5041 2.2111 2.2547 3.8543 2.2547 1.6953 0 2.9979-.7695 3.9064-2.3068.75347-1.2592 1.1288-2.7965 1.1288-4.615zm16.1 3.9586c0 1.504-.52453 2.727-1.5736 3.6703-1.1534 1.0316-2.7618 1.5475-4.8251 1.5475-1.9054 0-3.4341-.3666-4.5889-1.1013l.65494-2.3589c1.2418.7346 2.6038 1.1012 4.0905 1.1012 1.0664 0 1.8967-.2405 2.4908-.7216.59408-.481.89112-1.1229.89112-1.9271 0-.7172-.24488-1.32-.73463-1.8098-.48975-.4897-1.3026-.9447-2.4386-1.3635-3.0936-1.1533-4.6411-2.84-4.6411-5.0613 0-1.4505.54627-2.6386 1.6388-3.566 1.0925-.9259 2.5386-1.3895 4.3397-1.3895 1.6084 0 2.9458.2796 4.0122.8389l-.70566 2.3082c-.99690-.5419-2.1242-.8128-3.3819-.8128-.99690 0-1.775.2448-2.3329.7346-.47237.4376-.70855.9708-.70855 1.5997 0 .6998.27096 1.2765.81288 1.7301.47237.4188 1.3287.8738 2.569 1.3635 1.5214.6115 2.6386 1.3287 3.3558 2.1503.71724.8216 1.0751 1.8446 1.0751 3.0675zm-43.365-76.02c-6.3829 0-12.485 1.2463-18.307 3.7363-5.8221 2.4901-10.838 5.8383-15.047 10.047-4.2086 4.2089-7.5568 9.2251-10.047 15.047-2.4901 5.8217-3.7363 11.924-3.7363 18.307 0 6.3828 1.2463 12.485 3.7363 18.307 2.4901 5.8222 5.8383 10.838 10.047 15.047 4.2089 4.2086 9.2251 7.5568 15.047 10.047 5.8217 2.49 11.924 3.7363 18.307 3.7363 6.3829 0 12.485-1.2463 18.307-3.7363 4.0231-1.7207 7.6517-3.8612 10.904-6.4024h-9.2793c-1.1508.6144-2.3386 1.1903-3.5703 1.7188-5.1907 2.227-10.645 3.3398-16.361 3.3398-5.7168 0-11.171-1.1128-16.361-3.3398-5.1907-2.227-9.6615-5.2181-13.414-8.9707-3.7527-3.7528-6.7437-8.2236-8.9707-13.414-2.227-5.1908-3.3398-10.645-3.3398-16.361 0-5.7168 1.1128-11.171 3.3398-16.361 2.2271-5.1907 5.2181-9.6615 8.9707-13.414 3.7528-3.7527 8.2235-6.7437 13.414-8.9707 5.1907-2.227 10.645-3.3398 16.361-3.3398 5.7167 0 11.171 1.1225 16.361 3.3691 5.1907 2.2271 9.6615 5.2181 13.414 8.9707 3.7527 3.7528 6.7437 8.2235 8.9707 13.414 2.2252 5.1866 3.3381 10.636 3.3398 16.348-.0016 4.3825-.66402 8.6084-1.9746 12.682h5.2715c1.1589-4.0932 1.7539-8.3135 1.7539-12.668 0-6.3828-1.2463-12.485-3.7363-18.307-2.4901-5.8221-5.8383-10.838-10.047-15.047-4.2089-4.2086-9.2251-7.5568-15.047-10.047-5.823-2.5-11.925-3.75-18.308-3.75zm-.002 9.5234c-2.2095 0-4.5588.22766-7.0488.68359l.78906 3.4727c.03507.17536-.000255.35985-.10547.55273-.10521.1929-.24457.28906-.41992.28906-.45592 0-.71892-.17663-.78906-.52734l-.78906-3.5234c-4.6293 1.0521-8.9079 2.9284-12.836 5.6289-3.928 2.7005-7.2429 6.0134-9.9434 9.9414l1.0527.63281c.70141.42083 1.2706.79768 1.709 1.1309.43839.33318.65820.60402.65820.81445 0 .42086-.22767.63086-.68359.63086-.14029 0-.44842-.13934-.92188-.41992-.47346-.28057-.99945-.61422-1.5781-1-.57867-.38572-.90251-.59573-.97266-.63086-3.8227 6.0673-5.7344 12.713-5.7344 19.937 0 2.3497.24533 4.7873.73633 7.3125l3.5781-.7891c.17535-.035.35984.0002.55273.1055.19289.1051.28906.2465.28906.4219 0 .4208-.17663.6838-.52734.789l-3.6289.7891c1.0873 4.6291 3.0165 8.9158 5.7871 12.861 2.7709 3.9456 6.1365 7.2331 10.1 9.8634.07014-.1053.30762-.5077.71094-1.209.40335-.7015.79781-1.3079 1.1836-1.8164s.68410-.7617.89453-.7617c.45593 0 .68359.2278.68359.6836 0 .1404-.16683.4739-.5 1-.33315.526-.71001 1.113-1.1309 1.7617-.42086.6487-.64853 1.0079-.68359 1.0781 6.0673 3.6825 12.591 5.5235 19.57 5.5235 2.2692 0 4.509-.2131 6.7246-.6153h-1.0605c-1.4014 0-2.5293-1.1278-2.5293-2.5293v-19.27c0-1.4014 1.1278-2.5313 2.5293-2.5313h29.777c1.4461-4.0075 2.1719-8.2293 2.1719-12.668 0-2.3849-.24533-4.8401-.73633-7.3652l-3 .6836c-.14028.0351-.30711.002-.5-.10352-.19289-.10521-.28906-.24652-.28906-.42187 0-.491.17663-.77166.52734-.8418l2.9453-.63086c-1.0872-4.5591-2.9733-8.7848-5.6562-12.678-2.6829-3.8929-5.9703-7.1548-9.8633-9.7852-1.2976 2.2445-2.1396 3.3672-2.5254 3.3672-.42085 0-.63086-.22767-.63086-.6836 0-.3156.68493-1.4559 2.0527-3.4199-6.139-3.83-12.786-5.74-19.941-5.74zm21.99 9.9414-18.412 30.564c-.1052.1753-.98253 1.0605-2.6309 2.6562-1.6483 1.5957-3.6993 3.5427-6.1543 5.8399-2.4549 2.2972-4.8396 4.5247-7.1543 6.6816-2.3147 2.1568-4.5246 4.2-6.6289 6.129-2.1043 1.9289-3.2779 3.0163-3.5234 3.2617l18.36-30.53c.1052-.21047.99038-1.1152 2.6562-2.7109 1.6659-1.5958 3.7168-3.5329 6.1543-5.8125 2.4374-2.2796 4.8319-4.5072 7.1816-6.6816 2.3498-2.1744 4.5499-4.2175 6.6016-6.1289s3.2351-3.0066 3.5508-3.2871zm-22.514 24.463c-.87679.000010-1.6147.33372-2.2109.99998-.59621.6665-.89453 1.4555-.89453 2.3672 0 .8768.33365 1.603 1 2.1816.66633.5788 1.4553.8692 2.3672.8692.87679 0 1.6049-.3337 2.1836-1 .57867-.6664.86719-1.4554.86719-2.3672 0-.8767-.33169-1.6049-.99805-2.1836-.66635-.57867-1.4377-.86718-2.3145-.86718z" style="fill:#000000"/>
 </g>
</svg>
