<svg xmlns:rdf="http://www.w3.org/1999/02/22-rdf-syntax-ns#" xmlns="http://www.w3.org/2000/svg" version="1.1" xmlns:cc="http://creativecommons.org/ns#" xmlns:dc="http://purl.org/dc/elements/1.1/" viewBox="0 0 100 100">
 <g transform="translate(0 -952.36)">
  <g transform="matrix(.059920 0 0 .059920 63.622 1011.8)">
   <g>
    <g id="android">
     <path d="m152.68 458.36c0 15.3 10.2 25.5 25.5 25.5h25.5v89.25c0 20.4 17.85 38.25 38.25 38.25s38.25-17.85 38.25-38.25v-89.25h51v89.25c0 20.4 17.85 38.25 38.25 38.25s38.25-17.85 38.25-38.25v-89.25h25.5c15.3 0 25.5-10.2 25.5-25.5v-255h-306v255zm-63.75-255c-20.4 0-38.25 17.851-38.25 38.25v178.5c0 20.4 17.85 38.25 38.25 38.25s38.25-17.85 38.25-38.25v-178.5c0-20.4-17.85-38.25-38.25-38.25zm433.5 0c-20.4 0-38.25 17.851-38.25 38.25v178.5c0 20.4 17.85 38.25 38.25 38.25s38.25-17.85 38.25-38.25v-178.5c0-20.4-17.85-38.25-38.25-38.25zm-127.5-147.9 33.15-33.15c5.1-5.1 5.1-12.75 0-17.85-5.101-5.101-12.75-5.101-17.851 0l-38.25 38.25c-17.85-12.75-40.8-17.851-66.3-17.851s-48.45 5.101-68.85 15.3l-35.7-38.25c-5.1-2.55-15.3-2.55-20.4 0-2.55 5.101-2.55 15.301 0 20.4l33.15 33.15c-35.7 28.05-61.2 71.399-61.2 122.4h306c0-51-25.5-96.897-63.75-122.4zm-140.25 71.4h-25.5v-25.5h25.5v25.5zm127.5 0h-25.5v-25.5h25.5v25.5zm-648.47-1052.2c-153.2 3.6312-304.31 56.616-426.52 149.39-18.198 25.776-95.427 53.771-75.003 84.13 9.915 16.563 16.376 8.3085 28.098-2.5751 164.29-163 410.41-231.13 636.37-186.77 92.023 25.701 185.78 47.562 275.11 81.522-109.16-73.972-240.18-119.24-372.34-124.19-21.892-1.5227-43.827-2.0181-65.713-1.4994zm298.77 104.11c76.659 48.615 145.81 109.53 198.61 183.74 61.419 79.922-35.193-17.684-72.428-19.394-88.432-28.428 16.633 33.427 26.337 66.104 60.034 74.183 88.79 168.13 85.434 263.15 11.41 74.947-20.783-6.5197-51.958-25.131-26.927 16.205 9.4167 113.18 3.1944 158.15-2.001 35.591-8.6324 182.4-41.69 91.464-3.8949 21.877-8.0142 44.695-13.038 67.506 6.9144-3.442 14.6-5.2532 22.687-4.6286 23.886-.42475 44.235 15.691 58.412 33.476 37.546-10.929 78.773-12.322 115.85 1.2386 8.8519-9.3168 17.44-19.247 28.521-26.011 25.787-17.584 64.503-3.2156 75.883 24.936 9.2405 20.832.0935 45.21-14.864 60.856 6.8594 7.9343 12.945 16.469 18.286 25.457 1.0056-39.357 8.0123-77.518 30.966-112.78 53.847-99.934 51.155-220.2 19.003-326.41-8.2394 28.596-33.964 85.038-26.37 17.928 10.813-131.53-37.639-269.01-140.16-354.58-22.49 23.997-92.919-108.34-105.48-52.023 58.36 70.768 130.06 135.32 165.16 222.86-17.994-32.268-82.372-117.57-130.58-156.49-65.555-73.849-157.79-115.62-251.77-139.41zm-865.39 45.699c-50.598 52.066-69.113 127.82-74.97 198.35h.0326v12.973c36.168-35.923 74.584-71.088 121.65-92.083 18.348-21.886-58.779-74.369-46.71-119.24zm437.44 50.784c-75.56 3.3882-142.96 57.617-187.23 116.53-27.292 57.073-24.079 9.047-14.831-24.61-49.193-38.29-146.9-8.65-203.07 22.393-125.63 73.098-172.17 220.3-202.84 353.5 46.722-83.328 1.3199 41.211 7.6926 75.133-.0883 29.606-14.711 183.82 8.4097 91.17 19.997-17.796 15.603 95.292 34.486 121.84 60.197 232.76 250.23 410.71 466.84 502.11 25.064 12.981 176.11 63.077 91.04 15.809 21.545-4.9454 94.604 32.129 135.7 31.813 14.254-4.9045 111.13 24.012 52.349-12.386 87.718-10.482 179.32-14.973 265.66-40.549 25.455-4.5994 49.455-12.983 72.004-23.99-3.6951-3.749-7.0469-7.8251-9.7135-12.386-39.4 18.47-92.121-3.75-105.89-45.13-8.2333-57.3-3.507-115.34-4.11-172.98-2.4524-23.22-2.1752-48.13 9.486-69.07 16.194-32.792 57.849-48.918 92.213-37.387 3.0695-40.159 17.93-79.632 43.548-110.86-3.8428-5.4464-7.7335-11.025-10.952-16.917-17.786 46.326-44.452 87.656-88.465 114.48-20.397-56.905-69.067 56.024-98.081 43.646-19.503-24.663-105.87 20.648-151.77 15.059-29.333 13.051-163.69-36.48-81.522-34.845 30.162-11.267-81.324-26.471-110.21-35.921-66.003-36.299-124.97-97.226-144.63-171.75-6.0631-72.002-14.554-159.04 39.962-215.69-36.095-40.357-131.34-18.073-163.4 32.498-65.468 83.028-32.742 203.3 36.149 273.64-22.962-18.109-63.338-67.843-74.449-107.4-43.518-104.6 30.036-246.52 149.06-246.75 56.519-24.428 141.17 122.1 126.28 12.256 8.0825-45.987-40.037-74.328-50.035-116.53-47.135-116.39 15.69-245.94 103.17-324.95-11.083-1.7248-22.062-2.2768-32.857-1.7928zm-46.71 188.34c-17.752 59.498-4.1945 125.22 32.009 175.17 4.7202.58411 8.9614 22.512 16.852 9.9417 48.679-44.867 154.38-54.475 140.68-141.01-50.281-41.86-139.62 7.2935-189.54-44.102zm-60.954 408.62c-5.2671 74.276 14.421 156.02 79.012 200.56 16.369 17.781 32.353 17.455 54.891 16.07 80.845 8.0341 153.29-31.634 213.44-81.555 19.296-35.347 87.94 8.0109 83.999-41.592-24.259-68.562-118.59-77.127-177.94-53.033-80.692 57.747-186.74 21.228-253.4-40.451z"/>
    </g>
   </g>
  </g>
 </g>
</svg>
