<svg xmlns:rdf="http://www.w3.org/1999/02/22-rdf-syntax-ns#" xmlns="http://www.w3.org/2000/svg" version="1.1" xmlns:cc="http://creativecommons.org/ns#" xmlns:dc="http://purl.org/dc/elements/1.1/" viewBox="0 0 100 100">
 <g transform="translate(0 -952.36)">
  <g transform="matrix(.19488 0 0 .19488 .30580 952.28)">
   <circle cx="255" cy="257" r="91.125"/>
   <path d="m254.45 148.42v-.007h220.21c-40.03-80.827-123.35-136.41-219.66-136.41-77.97 0-147.42 36.424-192.29 93.18l84.011 143.67c4.157-55.982 50.757-100.14 107.74-100.43zm.55 217.16c-46.99 0-87.004-29.849-102.13-71.617l-101.39-173.39c-26.192 38.99-41.48 85.93-41.48 136.43 0 123.32 91.121 225.35 209.71 242.46l84.529-145.65c-14.78 7.53-31.51 11.778-49.235 11.778zm227.48-199.71h-168.41c29.804 19.358 49.519 52.938 49.519 91.125 0 18.777-4.768 36.443-13.157 51.851l.062.037-111.75 192.56c5.376.352 10.795.55 16.261.55 135.31 0 245-109.69 245-245 0-32.206-6.226-62.956-17.521-91.125z"/>
  </g>
 </g>
</svg>
