<svg xmlns:rdf="http://www.w3.org/1999/02/22-rdf-syntax-ns#" xmlns="http://www.w3.org/2000/svg" version="1.1" xmlns:cc="http://creativecommons.org/ns#" xmlns:dc="http://purl.org/dc/elements/1.1/" viewBox="0 0 100 100">
 <g transform="translate(0 -952.36)">
  <g transform="matrix(.094248 0 0 .094248 2.8805 955.24)"></g>
  <g transform="matrix(.18832 0 0 .18832 4.2017 956.56)"></g>
  <g transform="matrix(.059920 0 0 .059920 64.099 1012.5)">
   <g>
    <g id="android">
     <path d="m152.68 458.36c0 15.3 10.2 25.5 25.5 25.5h25.5v89.25c0 20.4 17.85 38.25 38.25 38.25s38.25-17.85 38.25-38.25v-89.25h51v89.25c0 20.4 17.85 38.25 38.25 38.25s38.25-17.85 38.25-38.25v-89.25h25.5c15.3 0 25.5-10.2 25.5-25.5v-255h-306v255zm-63.75-255c-20.4 0-38.25 17.851-38.25 38.25v178.5c0 20.4 17.85 38.25 38.25 38.25s38.25-17.85 38.25-38.25v-178.5c0-20.4-17.85-38.25-38.25-38.25zm433.5 0c-20.4 0-38.25 17.851-38.25 38.25v178.5c0 20.4 17.85 38.25 38.25 38.25s38.25-17.85 38.25-38.25v-178.5c0-20.4-17.85-38.25-38.25-38.25zm-127.5-147.9 33.15-33.15c5.1-5.1 5.1-12.75 0-17.85-5.101-5.101-12.75-5.101-17.851 0l-38.25 38.25c-17.85-12.75-40.8-17.851-66.3-17.851s-48.45 5.101-68.85 15.3l-35.7-38.25c-5.1-2.55-15.3-2.55-20.4 0-2.55 5.101-2.55 15.301 0 20.4l33.15 33.15c-35.7 28.05-61.2 71.399-61.2 122.4h306c0-51-25.5-96.897-63.75-122.4zm-140.25 71.4h-25.5v-25.5h25.5v25.5zm127.5 0h-25.5v-25.5h25.5v25.5zm-315.17-295.94a296.37 296.37 0 0 1 -296.37 296.37 296.37 296.37 0 0 1 -296.37 -296.37 296.37 296.37 0 0 1 296.37 -296.37 296.37 296.37 0 0 1 296.37 296.37zm-104.26-296.4c96.933 62.959 161.06 172.16 161.06 296.36 0 61.07-15.514 118.54-42.798 168.65l.22814.13017-363.47 626.27c17.485 1.1449 35.126 1.7928 52.903 1.7928 143.13 0 277.31-37.916 393.4-103.98.012-.31092.02-.63485.0334-.94527-17.736-4.0482-33.875-15.396-43.092-31.162-39.38 18.48-92.101-3.73-105.87-45.11-8.2326-57.3-3.506-115.34-4.109-172.98-2.4526-23.22-2.1755-48.13 9.485-69.07 16.194-32.792 57.849-48.918 92.213-37.387 3.0695-40.159 17.93-79.632 43.548-110.86-7.7581-10.996-15.806-22.506-17.83-36.149-6.0082-29.885 19.952-62.746 51.175-60.335 23.886-.42474 44.235 15.691 58.412 33.476 37.546-10.929 78.773-12.322 115.85 1.2387 8.8519-9.3168 17.44-19.247 28.521-26.011 25.787-17.584 64.503-3.2156 75.883 24.936 9.2404 20.832.0935 45.21-14.864 60.856 24.881 28.78 39.738 65.45 44.102 103.13 44.834-99.661 69.983-210.11 69.983-326.48 0-104.75-20.275-204.75-57.01-296.36h-547.74zm-854.06-147.32c-85.186 126.81-134.88 279.48-134.88 443.73 0 401.08 296.34 732.91 682.03 788.56l274.92-473.69c-48.07 24.49-102.46 38.3-160.11 38.3l-.0317-.0317c-152.83 0-282.96-97.085-332.15-232.93l-329.78-563.95zm661.92-353.11c-253.59 0-479.45 118.48-625.38 303.08l273.22 467.26c13.519-182.06 165.09-325.68 350.4-326.64v-.0317h716.19c-130.18-262.88-401.19-443.67-714.42-443.67z"/>
    </g>
   </g>
  </g>
 </g>
</svg>
