<svg xmlns:rdf="http://www.w3.org/1999/02/22-rdf-syntax-ns#" xmlns="http://www.w3.org/2000/svg" version="1.1" xmlns:cc="http://creativecommons.org/ns#" xmlns:dc="http://purl.org/dc/elements/1.1/" viewBox="0 0 100 100">
 <g transform="translate(0 -952.36)">
  <path d="m52.788 1002.2q0 1.3678-.86801 2.3674-.86801.9995-2.1832.9995-1.3678 0-2.3673-.8681-.99953-.8679-.99953-2.1832 0-1.3676.89432-2.3673.89432-.99943 2.2095-.99943t2.3147.86803q.99953.868.99953 2.1831zm.78910 3.0513 18.412-30.565q-.47346.42084-3.551 3.2879t-6.6022 6.1287-7.1808 6.6811q-3.6562 3.4194-6.155 5.8131-2.4988 2.3936-2.6566 2.7093l-18.36 30.512q.36825-.3681 3.5247-3.2615 3.1564-2.8935 6.6285-6.1287 3.4721-3.2353 7.1545-6.6811 3.6825-3.4458 6.155-5.8394t2.6303-2.6566zm34.037-2.8934q0 10.574-5.4711 19.517-.15782-.1053-.89432-.5787-.73650-.4733-1.3941-.8679-.65758-.3945-.86801-.3945-.68389 0-.68389.6839 0 .526 3.1038 2.3146-3.8929 5.8919-9.706 10.022-5.8131 4.1297-12.705 5.8131l-.84171-3.5247q-.0526-.5261-.78910-.5261-.26304 0-.42086.2894-.15782.2893-.10522.4997l.84171 3.5773q-3.7877.7891-7.6806.7891-10.469 0-19.57-5.5237.0526-.1054.68389-1.0785.63128-.9731 1.131-1.7622.49976-.7891.49976-.9997 0-.6837-.68389-.6837-.31564 0-.89432.7627-.57868.7628-1.1837 1.815-.60498 1.052-.71019 1.2099-5.9446-3.9455-10.101-9.8638-4.1559-5.9183-5.7868-12.862l3.6299-.7891q.52607-.1579.52607-.7891 0-.2631-.28934-.4208-.28934-.1579-.55237-.1054l-3.5773.7891q-.73650-3.7877-.73650-7.3123 0-10.837 5.7341-19.938.10522.0527.97323.63128.86801.57867 1.5782.99953.71019.42087.92062.42087.68389 0 .68389-.63129 0-.31564-.65759-.81541-.65758-.49976-1.7097-1.131l-1.0521-.6313q4.0507-5.892 9.9427-9.9427t12.836-5.6289l.78910 3.5247q.10522.52607.78910.52607.26303 0 .42085-.28934.15782-.28933.10522-.55237l-.78910-3.4721q3.7351-.68389 7.0493-.68389 10.732 0 19.938 5.7342-2.0517 2.946-2.0517 3.4194 0 .68389.63128.68389.57868 0 2.5251-3.3668 5.8394 3.9455 9.8638 9.7849t5.6552 12.678l-2.946.63128q-.52607.10521-.52607.84171 0 .26303.28934.42085t.49976.10521l2.9986-.68389q.73650 3.7877.73650 7.365zm4.4716 0q0-8.5749-3.3405-16.361-3.3405-7.7858-8.9695-13.415-5.6289-5.6289-13.415-8.9695-7.786-3.37-16.361-3.37-8.5749 0-16.361 3.3405-7.7858 3.3405-13.415 8.9695-5.6289 5.6289-8.9695 13.415-3.3405 7.7858-3.3405 16.361 0 8.5748 3.3405 16.361 3.3405 7.7859 8.9695 13.415 5.6289 5.629 13.415 8.9695 7.7858 3.3405 16.361 3.3405 8.5749 0 16.361-3.3405 7.7858-3.3405 13.415-8.9695 5.6289-5.6289 8.9695-13.415 3.3405-7.7859 3.3405-16.361zm5.0503 0q0 9.5744-3.7351 18.307-3.7351 8.7327-10.048 15.046-6.3128 6.3128-15.046 10.048-8.7327 3.735-18.307 3.735-9.5744 0-18.307-3.735-8.7327-3.7351-15.046-10.048-6.3128-6.3129-10.048-15.046-3.7351-8.7328-3.7351-18.307 0-9.5745 3.7351-18.307 3.7351-8.7327 10.048-15.046 6.3128-6.3128 15.046-10.048 8.7327-3.7351 18.307-3.7351 9.5744 0 18.307 3.7351 8.7327 3.7351 15.046 10.048 6.3128 6.3128 10.048 15.046 3.7351 8.7328 3.7351 18.307z"/>
 </g>
</svg>
