<svg xmlns:rdf="http://www.w3.org/1999/02/22-rdf-syntax-ns#" xmlns="http://www.w3.org/2000/svg" version="1.1" xmlns:cc="http://creativecommons.org/ns#" xmlns:dc="http://purl.org/dc/elements/1.1/" viewBox="0 0 100 100">
 <g transform="translate(0 -952.36)">
  <g transform="matrix(.094248 0 0 .094248 2.8805 955.24)"></g>
  <g transform="matrix(.18832 0 0 .18832 4.2017 956.56)">
   <g>
    <path d="m367.1 280.8h118.02c.909-8.185 1.273-16.549 1.273-25.099 0-40.111-10.768-77.733-29.562-110.13 19.45-51.66 18.75-95.5-7.27-121.7-24.75-24.64-91.15-20.64-166.21 12.599-5.552-.42-11.158-.636-16.817-.636-103.02 0-189.46 70.897-213.35 166.42 32.318-41.377 66.318-71.377 111.74-93.224-4.13 3.87-28.227 27.826-32.28 31.882-119.77 119.74-157.54 276.16-116.9 316.81 30.893 30.887 86.879 25.671 151.19-5.824 29.903 15.229 63.75 23.815 99.61 23.815 96.565 0 178.4-62.158 208.04-148.72h-118.93c-16.366 30.19-48.373 50.739-85.107 50.739s-68.743-20.549-85.108-50.739c-7.275-13.638-11.457-29.276-11.457-45.828v-.36h193.13zm-192.95-58.02c2.728-48.555 43.1-87.292 92.384-87.292 49.282 0 89.655 38.736 92.382 87.292h-184.77zm274.33-174.5c16.763 16.94 16.344 48.107 2.006 87.011-24.57-37.458-60.26-66.972-102.4-83.824 45.06-19.319 81.71-21.878 100.39-3.191zm-401.74 401.72c-21.391-21.4-14.943-66.31 12.614-120.42 17.154 48.136 50.578 88.545 93.668 114.58-47.714 21.66-86.768 25.337-106.28 5.839z"/>
   </g>
  </g>
 </g>
</svg>
