<svg xmlns:rdf="http://www.w3.org/1999/02/22-rdf-syntax-ns#" xmlns="http://www.w3.org/2000/svg" version="1.1" xmlns:cc="http://creativecommons.org/ns#" xmlns:dc="http://purl.org/dc/elements/1.1/" viewBox="0 0 100 100">
 <g transform="translate(0 -952.36)">
  <path style="fill:#000000" d="m48.212 1047.3c-2.4619.02-6.8405-2.2013-8.1318-1.9049 5.0976 2.8323-3.9517-.1694-5.4535-.9472-12.979-5.4764-24.366-16.139-27.973-30.086-1.1315-1.5909-.8693-8.3687-2.0675-7.3024-1.3854 5.5516-.50865-3.6884-.50336-5.4624-.38185-2.0326 2.3388-9.4953-.46079-4.5023 1.8379-7.9816 4.6266-16.8 12.154-21.18 3.3659-1.8601 9.2204-3.6361 12.168-1.3418-.55412 2.0167-.74594 4.8931.88940 1.4733 3.0318-4.0343 7.8741-7.7006 13.187-6.8738-5.2415 4.734-9.0067 12.495-6.1824 19.469.59907 2.5287 3.4842 4.2277 2.9999 6.9832.89239 6.5818-4.1802-2.1975-7.5668-.73381-7.1319.014-11.539 8.5177-8.9314 14.785.66574 2.3704 3.084 5.35 4.4599 6.4351-4.1279-4.2151-6.089-11.422-2.1662-16.397 1.9214-3.0302 7.6289-4.3642 9.7917-1.946-3.2666 3.394-2.7576 8.6087-2.3943 12.923 1.1778 4.4653 4.7112 8.117 8.6661 10.292 1.7306.5662 8.4095 1.4758 6.6022 2.1509-4.9236-.098 3.1271 2.871 4.8847 2.089 2.7503.3349 7.9265-2.3797 9.0951-.9019 1.7385.7417 4.6534-6.026 5.8756-2.6163 5.2366-3.191 6.3838-9.8086 7.3784-15.395 1.9808 5.4491 2.3774-3.3468 2.4973-5.4794.37284-2.6946-1.8045-8.5058-.19106-9.4768 1.868 1.1152 3.7972 5.997 3.1135 1.5062.20110-5.6935-1.5215-11.324-5.1187-15.769-.58148-1.958-6.8783-5.6625-1.5795-3.9591 2.2311.10252 8.0208 5.9503 4.3406 1.1614-3.1635-4.4467-7.3076-8.096-11.901-11.009 5.6314 1.4258 11.159 3.928 15.087 8.353 2.8885 2.3325 6.7461 7.4432 7.8243 9.3767-2.1033-5.2453-6.4004-9.1126-9.8973-13.353.75267-3.3744 4.9719 4.5534 6.3195 3.1155 6.1431 5.1271 9.0478 13.367 8.3999 21.248-.45504 4.0212 1.0863.63813 1.58-1.0753 1.9265 6.3645 2.0874 13.571-1.1391 19.559-2.0733 3.1852-1.9952 6.76-1.747 10.39-.28526 2.7302-2.3678 5.0662-3.9091 7.2654-2.5671 3.2593-5.9016 5.7954-9.4254 7.921-2.5621 4.2065-6.66 7.1655-11.521 8.0438-5.1734 1.5325-10.662 1.8031-15.918 2.4312 3.5236 2.182-2.2877.4449-3.1376.7408zm-9.8762-30.448c-3.8703-2.6692-5.0516-7.5674-4.736-12.018 3.9942 3.6958 10.35 5.8829 15.185 2.4227 3.5565-1.4437 9.2074-.9303 10.661 3.1779.23613 2.9722-3.8772.3751-5.0334 2.4931-3.6039 2.9912-7.9438 5.3678-12.788 4.8864-1.3505.083-2.3077.1036-3.2885-.9618zm.83582-26.006c-2.1693-2.9927-2.9816-6.9309-1.9179-10.496 2.9917 3.0796 8.3442.13308 11.357 2.6413.82094 5.1851-5.5128 5.7608-8.4296 8.4492-.47280.75321-.72707-.55934-1.0099-.59434zm-29.822-12.94c.35096-4.2257 1.4603-8.7642 4.4921-11.884-.72317 2.6884 3.8972 5.8318 2.7978 7.1432-2.82 1.258-5.1226 3.3666-7.2898 5.5191v-.77858zm8.3923-6.87c-1.2238-1.8191 3.4023-3.4964 4.4927-5.0409 8.3684-6.3529 19.001-9.5905 29.495-8.8606 7.9193.29674 15.77 3.0082 22.311 7.4406-5.3527-2.0349-10.971-3.3439-16.485-4.8839-13.539-2.6576-28.287 1.4241-38.131 11.191-.70238.65214-1.0888 1.1464-1.6829.15394z"/>
 </g>
</svg>
