<?xml version="1.0" encoding="UTF-8" standalone="no"?>
<svg
   xmlns:dc="http://purl.org/dc/elements/1.1/"
   xmlns:cc="http://creativecommons.org/ns#"
   xmlns:rdf="http://www.w3.org/1999/02/22-rdf-syntax-ns#"
   xmlns:svg="http://www.w3.org/2000/svg"
   xmlns="http://www.w3.org/2000/svg"
   xmlns:sodipodi="http://sodipodi.sourceforge.net/DTD/sodipodi-0.dtd"
   xmlns:inkscape="http://www.inkscape.org/namespaces/inkscape"
   version="1.1"
   id="svg2"
   xml:space="preserve"
   width="1333.3333"
   height="1333.3333"
   viewBox="0 0 1333.3333 1333.3333"
   sodipodi:docname="image-from-rawpixel-id-524731-original.eps"><metadata
     id="metadata8"><rdf:RDF><cc:Work
         rdf:about=""><dc:format>image/svg+xml</dc:format><dc:type
           rdf:resource="http://purl.org/dc/dcmitype/StillImage" /></cc:Work></rdf:RDF></metadata><defs
     id="defs6"><clipPath
       clipPathUnits="userSpaceOnUse"
       id="clipPath22"><path
         d="m 3884.74,6811.67 c -121.97,-88.95 -233.09,-192.43 -330.4,-307.98 -32.05,78.1 -82.55,146.85 -146.36,200.56 -87.22,73.43 -198.84,118.76 -321.29,121.46 95.11,110.64 236.04,180.6 393.24,180.6 34.98,0 69.47,-3.44 102.5,-10.34 121.46,-24.15 227.65,-90.92 302.31,-184.3 z"
         id="path20" /></clipPath><linearGradient
       x1="0"
       y1="0"
       x2="1"
       y2="0"
       gradientUnits="userSpaceOnUse"
       gradientTransform="matrix(798.045,0,0,-798.045,3086.7,6755)"
       spreadMethod="pad"
       id="linearGradient30"><stop
         style="stop-opacity:1;stop-color:#9a231f"
         offset="0"
         id="stop24" /><stop
         style="stop-opacity:1;stop-color:#f57521"
         offset="0.895913"
         id="stop26" /><stop
         style="stop-opacity:1;stop-color:#f57521"
         offset="1"
         id="stop28" /></linearGradient><clipPath
       clipPathUnits="userSpaceOnUse"
       id="clipPath40"><path
         d="m 3554.34,6503.69 c -0.26,-0.24 -0.5,-0.5 -0.5,-0.5 -121.96,-144.37 -222.49,-307.23 -296.89,-483.65 -29.33,13.8 -56.92,30.56 -82.79,49.28 -87.96,64.56 -155.22,156.21 -188.73,262.65 -15.53,49.28 -23.9,101.75 -23.9,156.45 0,129.11 47.06,247.13 125.16,337.79 122.45,-2.7 234.07,-48.03 321.29,-121.46 63.81,-53.71 114.31,-122.46 146.36,-200.56 z"
         id="path38" /></clipPath><linearGradient
       x1="0"
       y1="0"
       x2="1"
       y2="0"
       gradientUnits="userSpaceOnUse"
       gradientTransform="matrix(592.804,0,0,-592.804,2961.53,6422.63)"
       spreadMethod="pad"
       id="linearGradient46"><stop
         style="stop-opacity:1;stop-color:#fab444"
         offset="0"
         id="stop42" /><stop
         style="stop-opacity:1;stop-color:#fef4f3"
         offset="1"
         id="stop44" /></linearGradient><clipPath
       clipPathUnits="userSpaceOnUse"
       id="clipPath56"><path
         d="m 6913.31,6825.71 c -122.96,-2.95 -235.06,-48.53 -322.53,-122.45 -63.07,-53.71 -113.33,-121.96 -145.12,-199.57 -97.07,115.55 -208.19,219.03 -330.4,308.23 74.41,92.89 180.11,159.41 300.83,183.8 33.76,6.9 68.5,10.59 103.98,10.59 157.2,0 298.13,-69.96 393.24,-180.6 z"
         id="path54" /></clipPath><linearGradient
       x1="0"
       y1="0"
       x2="1"
       y2="0"
       gradientUnits="userSpaceOnUse"
       gradientTransform="matrix(798.045,0,0,-798.045,6115.26,6755)"
       spreadMethod="pad"
       id="linearGradient64"><stop
         style="stop-opacity:1;stop-color:#9a231f"
         offset="0"
         id="stop58" /><stop
         style="stop-opacity:1;stop-color:#f57521"
         offset="0.895913"
         id="stop60" /><stop
         style="stop-opacity:1;stop-color:#f57521"
         offset="1"
         id="stop62" /></linearGradient><clipPath
       clipPathUnits="userSpaceOnUse"
       id="clipPath74"><path
         d="m 4999.14,5190.21 c -239.73,-104.71 -408.27,-341.49 -414.17,-618.42 123.92,64.55 264.86,101.01 414.17,101.01 149.55,0 290.49,-36.46 414.16,-101.01 -5.65,276.93 -174.43,513.71 -414.16,618.42 z m 0,0 c -239.73,-104.71 -408.27,-341.49 -414.17,-618.42 123.92,64.55 264.86,101.01 414.17,101.01 149.55,0 290.49,-36.46 414.16,-101.01 -5.65,276.93 -174.43,513.71 -414.16,618.42 z m 0,0 c -239.73,-104.71 -408.27,-341.49 -414.17,-618.42 123.92,64.55 264.86,101.01 414.17,101.01 149.55,0 290.49,-36.46 414.16,-101.01 -5.65,276.93 -174.43,513.71 -414.16,618.42 z"
         id="path72" /></clipPath><linearGradient
       x1="0"
       y1="0"
       x2="1"
       y2="0"
       gradientUnits="userSpaceOnUse"
       gradientTransform="matrix(0,618.417,618.417,0,4999.13,4571.79)"
       spreadMethod="pad"
       id="linearGradient80"><stop
         style="stop-opacity:1;stop-color:#fab444"
         offset="0"
         id="stop76" /><stop
         style="stop-opacity:1;stop-color:#fef4f3"
         offset="1"
         id="stop78" /></linearGradient><clipPath
       clipPathUnits="userSpaceOnUse"
       id="clipPath90"><path
         d="m 6446.65,6502.71 c -0.49,0 -0.99,0 -1.23,0.25 -103.74,15.75 -209.93,23.89 -318.08,23.89 -41.89,0 -83.53,-1.23 -124.67,-3.7 -367.86,-21.43 -710.59,-137.72 -1003.53,-324.98 -292.46,187.01 -634.44,303.05 -1001.81,324.74 -41.89,2.46 -84.02,3.94 -126.39,3.94 -107.67,0 -213.13,-8.14 -316.6,-23.66 h -0.5 c 0,0 0.24,0.26 0.5,0.5 97.31,115.55 208.43,219.03 330.4,307.98 312.66,229.15 698.49,363.92 1115.39,363.92 416.88,0 802.47,-134.77 1115.13,-363.67 122.21,-89.2 233.33,-192.68 330.4,-308.23 0.5,-0.5 0.74,-0.5 0.99,-0.98 z"
         id="path88" /></clipPath><linearGradient
       x1="0"
       y1="0"
       x2="1"
       y2="0"
       gradientUnits="userSpaceOnUse"
       gradientTransform="matrix(0,977.408,977.408,0,5000.25,6198.17)"
       spreadMethod="pad"
       id="linearGradient98"><stop
         style="stop-opacity:1;stop-color:#9a231f"
         offset="0"
         id="stop92" /><stop
         style="stop-opacity:1;stop-color:#f57521"
         offset="0.895913"
         id="stop94" /><stop
         style="stop-opacity:1;stop-color:#f57521"
         offset="1"
         id="stop96" /></linearGradient><clipPath
       clipPathUnits="userSpaceOnUse"
       id="clipPath108"><path
         d="m 6891.37,5290.5 c -12.81,-237.29 -55.68,-466.67 -125.16,-684.46 -200.55,-630.27 -621.63,-1161.71 -1172.8,-1504.18 -60.11,-37.46 -121.46,-72.45 -184.29,-104.98 -67.51,-34.98 -136.74,-67.5 -207.21,-96.81 0,-0.26 -0.25,-0.26 -0.49,0 -66.03,-27.85 -133.54,-52.97 -202.28,-75.66 -68.5,22.69 -136.01,47.81 -202.04,75.4 -70.96,29.57 -140.19,61.85 -207.95,97.07 -63.08,32.78 -124.67,67.77 -184.79,105.21 -558.8,347.41 -984.06,889.71 -1180.93,1531.78 -60.85,198.35 -100.03,406.3 -114.31,620.65 -0.49,10.1 -0.49,19.71 -0.49,29.82 0,178.63 24.64,351.59 71.19,515.44 21.2,75.13 47.07,148.56 77.13,219.76 74.4,176.42 174.93,339.28 296.89,483.65 h 0.5 c 103.47,15.52 208.93,23.66 316.6,23.66 42.37,0 84.5,-1.48 126.39,-3.94 367.37,-21.69 709.35,-137.73 1001.81,-324.74 -524.06,-334.33 -889.95,-895.11 -959.68,-1544.84 -2.46,-21.43 -4.44,-43.12 -6.15,-65.03 -0.5,-10.35 -0.5,-20.46 -0.5,-31.05 0,-158.68 53.72,-305.28 143.89,-421.82 126.15,-163.58 323.75,-268.56 546.24,-268.56 98.31,0 191.68,20.45 276.2,57.42 84.76,-36.97 177.88,-57.42 276.2,-57.42 222.24,0 420.08,104.98 546.23,268.33 0,0 0,0 0,0.23 90.42,116.54 144.14,263.14 144.14,421.82 0,10.59 -0.26,20.7 -0.75,31.05 -1.72,21.68 -3.69,43.12 -5.9,64.3 0,0.24 0,0.73 0,0.73 -69.99,649.73 -435.62,1210.51 -959.92,1544.84 292.94,187.26 635.67,303.55 1003.53,324.98 41.14,2.47 82.78,3.7 124.67,3.7 108.15,0 214.34,-8.14 318.08,-23.89 0.24,-0.25 0.74,-0.25 1.23,-0.25 121.71,-144.15 222.24,-306.75 296.4,-483.17 30.3,-71.2 56.17,-144.63 77.37,-219.76 45.82,-162.13 70.46,-332.89 70.95,-509.28 z"
         id="path106" /></clipPath><linearGradient
       x1="0"
       y1="0"
       x2="1"
       y2="0"
       gradientUnits="userSpaceOnUse"
       gradientTransform="matrix(0,3702.43,3702.43,0,5000,2824.41)"
       spreadMethod="pad"
       id="linearGradient116"><stop
         style="stop-opacity:1;stop-color:#9a231f"
         offset="0"
         id="stop110" /><stop
         style="stop-opacity:1;stop-color:#f57521"
         offset="0.895913"
         id="stop112" /><stop
         style="stop-opacity:1;stop-color:#f57521"
         offset="1"
         id="stop114" /></linearGradient><clipPath
       clipPathUnits="userSpaceOnUse"
       id="clipPath126"><path
         d="m 7038.47,6487.92 c 0,-54.7 -8.39,-107.67 -24.14,-157.2 -33.76,-106.68 -101.28,-198.58 -189.97,-262.89 -25.38,-18.23 -52.48,-34.49 -81.31,-48.29 -74.16,176.42 -174.69,339.02 -296.4,483.17 -0.25,0.48 -0.49,0.48 -0.99,0.98 31.79,77.61 82.05,145.86 145.12,199.57 87.47,73.92 199.57,119.5 322.53,122.45 78.1,-90.66 125.16,-208.68 125.16,-337.79 z"
         id="path124" /></clipPath><linearGradient
       x1="0"
       y1="0"
       x2="1"
       y2="0"
       gradientUnits="userSpaceOnUse"
       gradientTransform="matrix(592.804,0,0,-592.804,6445.67,6422.63)"
       spreadMethod="pad"
       id="linearGradient132"><stop
         style="stop-opacity:1;stop-color:#fab444"
         offset="0"
         id="stop128" /><stop
         style="stop-opacity:1;stop-color:#fef4f3"
         offset="1"
         id="stop130" /></linearGradient><clipPath
       clipPathUnits="userSpaceOnUse"
       id="clipPath142"><path
         d="m 5413.55,4557.25 c 0,-283.09 -170.49,-526.28 -414.41,-632.96 -121.97,53.22 -225.69,140.93 -298.62,250.33 -73.18,109.39 -115.81,240.96 -115.81,382.63 0,4.93 0,9.85 0.26,14.54 123.92,64.55 264.86,101.01 414.17,101.01 149.55,0 290.49,-36.46 414.16,-101.01 0.25,-4.93 0.25,-9.61 0.25,-14.54 z"
         id="path140" /></clipPath><linearGradient
       x1="0"
       y1="0"
       x2="1"
       y2="0"
       gradientUnits="userSpaceOnUse"
       gradientTransform="matrix(828.843,0,0,-828.843,4584.71,4298.54)"
       spreadMethod="pad"
       id="linearGradient150"><stop
         style="stop-opacity:1;stop-color:#9a231f"
         offset="0"
         id="stop144" /><stop
         style="stop-opacity:1;stop-color:#f57521"
         offset="0.895913"
         id="stop146" /><stop
         style="stop-opacity:1;stop-color:#f57521"
         offset="1"
         id="stop148" /></linearGradient><clipPath
       clipPathUnits="userSpaceOnUse"
       id="clipPath160"><path
         d="m 5965.71,4557.25 c 0,-158.68 -53.72,-305.28 -144.14,-421.82 0,-0.23 0,-0.23 0,-0.23 -126.15,-163.35 -323.99,-268.33 -546.23,-268.33 -98.32,0 -191.44,20.45 -276.2,57.42 243.92,106.68 414.41,349.87 414.41,632.96 0,4.93 0,9.61 -0.25,14.54 -5.65,276.93 -174.43,513.71 -414.16,618.42 -239.73,-104.71 -408.27,-341.49 -414.17,-618.42 -0.26,-4.69 -0.26,-9.61 -0.26,-14.54 0,-141.67 42.63,-273.24 115.81,-382.63 72.93,-109.4 176.65,-197.11 298.62,-250.33 -84.52,-36.97 -177.89,-57.42 -276.2,-57.42 -222.49,0 -420.09,104.98 -546.24,268.56 -90.17,116.54 -143.89,263.14 -143.89,421.82 0,10.59 0,20.7 0.5,31.05 1.71,21.91 3.69,43.6 6.15,65.03 69.73,649.73 435.62,1210.51 959.68,1544.84 524.3,-334.33 889.93,-895.11 959.92,-1544.84 0,0 0,-0.49 0,-0.73 2.21,-21.18 4.18,-42.62 5.9,-64.3 0.49,-10.35 0.75,-20.46 0.75,-31.05 z"
         id="path158" /></clipPath><linearGradient
       x1="0"
       y1="0"
       x2="1"
       y2="0"
       gradientUnits="userSpaceOnUse"
       gradientTransform="matrix(0,2331.3,2331.3,0,4999.26,3866.87)"
       spreadMethod="pad"
       id="linearGradient166"><stop
         style="stop-opacity:1;stop-color:#fab444"
         offset="0"
         id="stop162" /><stop
         style="stop-opacity:1;stop-color:#fef4f3"
         offset="1"
         id="stop164" /></linearGradient></defs><sodipodi:namedview
     pagecolor="#ffffff"
     bordercolor="#666666"
     borderopacity="1"
     objecttolerance="10"
     gridtolerance="10"
     guidetolerance="10"
     inkscape:pageopacity="0"
     inkscape:pageshadow="2"
     inkscape:window-width="640"
     inkscape:window-height="480"
     id="namedview4" /><g
     id="g10"
     inkscape:groupmode="layer"
     inkscape:label="ink_ext_XXXXXX"
     transform="matrix(1.3333333,0,0,-1.3333333,0,1333.3333)"><g
       id="g12"
       transform="scale(0.1)"><path
         d="M 10000,0 H 0 V 10000 H 10000 V 0"
         style="fill:#ffffff;fill-opacity:1;fill-rule:nonzero;stroke:none"
         id="path14" /><g
         id="g16"><g
           id="g18"
           clip-path="url(#clipPath22)"><path
             d="m 3884.74,6811.67 c -121.97,-88.95 -233.09,-192.43 -330.4,-307.98 -32.05,78.1 -82.55,146.85 -146.36,200.56 -87.22,73.43 -198.84,118.76 -321.29,121.46 95.11,110.64 236.04,180.6 393.24,180.6 34.98,0 69.47,-3.44 102.5,-10.34 121.46,-24.15 227.65,-90.92 302.31,-184.3"
             style="fill:url(#linearGradient30);fill-opacity:1;fill-rule:nonzero;stroke:none"
             id="path32" /></g></g><g
         id="g34"><g
           id="g36"
           clip-path="url(#clipPath40)"><path
             d="m 3554.34,6503.69 c -0.26,-0.24 -0.5,-0.5 -0.5,-0.5 -121.96,-144.37 -222.49,-307.23 -296.89,-483.65 -29.33,13.8 -56.92,30.56 -82.79,49.28 -87.96,64.56 -155.22,156.21 -188.73,262.65 -15.53,49.28 -23.9,101.75 -23.9,156.45 0,129.11 47.06,247.13 125.16,337.79 122.45,-2.7 234.07,-48.03 321.29,-121.46 63.81,-53.71 114.31,-122.46 146.36,-200.56"
             style="fill:url(#linearGradient46);fill-opacity:1;fill-rule:nonzero;stroke:none"
             id="path48" /></g></g><g
         id="g50"><g
           id="g52"
           clip-path="url(#clipPath56)"><path
             d="m 6913.31,6825.71 c -122.96,-2.95 -235.06,-48.53 -322.53,-122.45 -63.07,-53.71 -113.33,-121.96 -145.12,-199.57 -97.07,115.55 -208.19,219.03 -330.4,308.23 74.41,92.89 180.11,159.41 300.83,183.8 33.76,6.9 68.5,10.59 103.98,10.59 157.2,0 298.13,-69.96 393.24,-180.6"
             style="fill:url(#linearGradient64);fill-opacity:1;fill-rule:nonzero;stroke:none"
             id="path66" /></g></g><g
         id="g68"><g
           id="g70"
           clip-path="url(#clipPath74)"><path
             d="m 4999.14,5190.21 c -239.73,-104.71 -408.27,-341.49 -414.17,-618.42 123.92,64.55 264.86,101.01 414.17,101.01 149.55,0 290.49,-36.46 414.16,-101.01 -5.65,276.93 -174.43,513.71 -414.16,618.42 z m 0,0 c -239.73,-104.71 -408.27,-341.49 -414.17,-618.42 123.92,64.55 264.86,101.01 414.17,101.01 149.55,0 290.49,-36.46 414.16,-101.01 -5.65,276.93 -174.43,513.71 -414.16,618.42 z m 0,0 c -239.73,-104.71 -408.27,-341.49 -414.17,-618.42 123.92,64.55 264.86,101.01 414.17,101.01 149.55,0 290.49,-36.46 414.16,-101.01 -5.65,276.93 -174.43,513.71 -414.16,618.42"
             style="fill:url(#linearGradient80);fill-opacity:1;fill-rule:nonzero;stroke:none"
             id="path82" /></g></g><g
         id="g84"><g
           id="g86"
           clip-path="url(#clipPath90)"><path
             d="m 6446.65,6502.71 c -0.49,0 -0.99,0 -1.23,0.25 -103.74,15.75 -209.93,23.89 -318.08,23.89 -41.89,0 -83.53,-1.23 -124.67,-3.7 -367.86,-21.43 -710.59,-137.72 -1003.53,-324.98 -292.46,187.01 -634.44,303.05 -1001.81,324.74 -41.89,2.46 -84.02,3.94 -126.39,3.94 -107.67,0 -213.13,-8.14 -316.6,-23.66 h -0.5 c 0,0 0.24,0.26 0.5,0.5 97.31,115.55 208.43,219.03 330.4,307.98 312.66,229.15 698.49,363.92 1115.39,363.92 416.88,0 802.47,-134.77 1115.13,-363.67 122.21,-89.2 233.33,-192.68 330.4,-308.23 0.5,-0.5 0.74,-0.5 0.99,-0.98"
             style="fill:url(#linearGradient98);fill-opacity:1;fill-rule:nonzero;stroke:none"
             id="path100" /></g></g><g
         id="g102"><g
           id="g104"
           clip-path="url(#clipPath108)"><path
             d="m 6891.37,5290.5 c -12.81,-237.29 -55.68,-466.67 -125.16,-684.46 -200.55,-630.27 -621.63,-1161.71 -1172.8,-1504.18 -60.11,-37.46 -121.46,-72.45 -184.29,-104.98 -67.51,-34.98 -136.74,-67.5 -207.21,-96.81 0,-0.26 -0.25,-0.26 -0.49,0 -66.03,-27.85 -133.54,-52.97 -202.28,-75.66 -68.5,22.69 -136.01,47.81 -202.04,75.4 -70.96,29.57 -140.19,61.85 -207.95,97.07 -63.08,32.78 -124.67,67.77 -184.79,105.21 -558.8,347.41 -984.06,889.71 -1180.93,1531.78 -60.85,198.35 -100.03,406.3 -114.31,620.65 -0.49,10.1 -0.49,19.71 -0.49,29.82 0,178.63 24.64,351.59 71.19,515.44 21.2,75.13 47.07,148.56 77.13,219.76 74.4,176.42 174.93,339.28 296.89,483.65 h 0.5 c 103.47,15.52 208.93,23.66 316.6,23.66 42.37,0 84.5,-1.48 126.39,-3.94 367.37,-21.69 709.35,-137.73 1001.81,-324.74 -524.06,-334.33 -889.95,-895.11 -959.68,-1544.84 -2.46,-21.43 -4.44,-43.12 -6.15,-65.03 -0.5,-10.35 -0.5,-20.46 -0.5,-31.05 0,-158.68 53.72,-305.28 143.89,-421.82 126.15,-163.58 323.75,-268.56 546.24,-268.56 98.31,0 191.68,20.45 276.2,57.42 84.76,-36.97 177.88,-57.42 276.2,-57.42 222.24,0 420.08,104.98 546.23,268.33 0,0 0,0 0,0.23 90.42,116.54 144.14,263.14 144.14,421.82 0,10.59 -0.26,20.7 -0.75,31.05 -1.72,21.68 -3.69,43.12 -5.9,64.3 0,0.24 0,0.73 0,0.73 -69.99,649.73 -435.62,1210.51 -959.92,1544.84 292.94,187.26 635.67,303.55 1003.53,324.98 41.14,2.47 82.78,3.7 124.67,3.7 108.15,0 214.34,-8.14 318.08,-23.89 0.24,-0.25 0.74,-0.25 1.23,-0.25 121.71,-144.15 222.24,-306.75 296.4,-483.17 30.3,-71.2 56.17,-144.63 77.37,-219.76 45.82,-162.13 70.46,-332.89 70.95,-509.28"
             style="fill:url(#linearGradient116);fill-opacity:1;fill-rule:nonzero;stroke:none"
             id="path118" /></g></g><g
         id="g120"><g
           id="g122"
           clip-path="url(#clipPath126)"><path
             d="m 7038.47,6487.92 c 0,-54.7 -8.39,-107.67 -24.14,-157.2 -33.76,-106.68 -101.28,-198.58 -189.97,-262.89 -25.38,-18.23 -52.48,-34.49 -81.31,-48.29 -74.16,176.42 -174.69,339.02 -296.4,483.17 -0.25,0.48 -0.49,0.48 -0.99,0.98 31.79,77.61 82.05,145.86 145.12,199.57 87.47,73.92 199.57,119.5 322.53,122.45 78.1,-90.66 125.16,-208.68 125.16,-337.79"
             style="fill:url(#linearGradient132);fill-opacity:1;fill-rule:nonzero;stroke:none"
             id="path134" /></g></g><g
         id="g136"><g
           id="g138"
           clip-path="url(#clipPath142)"><path
             d="m 5413.55,4557.25 c 0,-283.09 -170.49,-526.28 -414.41,-632.96 -121.97,53.22 -225.69,140.93 -298.62,250.33 -73.18,109.39 -115.81,240.96 -115.81,382.63 0,4.93 0,9.85 0.26,14.54 123.92,64.55 264.86,101.01 414.17,101.01 149.55,0 290.49,-36.46 414.16,-101.01 0.25,-4.93 0.25,-9.61 0.25,-14.54"
             style="fill:url(#linearGradient150);fill-opacity:1;fill-rule:nonzero;stroke:none"
             id="path152" /></g></g><g
         id="g154"><g
           id="g156"
           clip-path="url(#clipPath160)"><path
             d="m 5965.71,4557.25 c 0,-158.68 -53.72,-305.28 -144.14,-421.82 0,-0.23 0,-0.23 0,-0.23 -126.15,-163.35 -323.99,-268.33 -546.23,-268.33 -98.32,0 -191.44,20.45 -276.2,57.42 243.92,106.68 414.41,349.87 414.41,632.96 0,4.93 0,9.61 -0.25,14.54 -5.65,276.93 -174.43,513.71 -414.16,618.42 -239.73,-104.71 -408.27,-341.49 -414.17,-618.42 -0.26,-4.69 -0.26,-9.61 -0.26,-14.54 0,-141.67 42.63,-273.24 115.81,-382.63 72.93,-109.4 176.65,-197.11 298.62,-250.33 -84.52,-36.97 -177.89,-57.42 -276.2,-57.42 -222.49,0 -420.09,104.98 -546.24,268.56 -90.17,116.54 -143.89,263.14 -143.89,421.82 0,10.59 0,20.7 0.5,31.05 1.71,21.91 3.69,43.6 6.15,65.03 69.73,649.73 435.62,1210.51 959.68,1544.84 524.3,-334.33 889.93,-895.11 959.92,-1544.84 0,0 0,-0.49 0,-0.73 2.21,-21.18 4.18,-42.62 5.9,-64.3 0.49,-10.35 0.75,-20.46 0.75,-31.05"
             style="fill:url(#linearGradient166);fill-opacity:1;fill-rule:nonzero;stroke:none"
             id="path168" /></g></g></g></g></svg>
