<?xml version="1.0" standalone="no"?>
<!DOCTYPE svg PUBLIC "-//W3C//DTD SVG 20010904//EN"
 "http://www.w3.org/TR/2001/REC-SVG-20010904/DTD/svg10.dtd">
<svg version="1.0" xmlns="http://www.w3.org/2000/svg"
 width="1224.000000pt" height="1224.000000pt" viewBox="0 0 1224.000000 1224.000000"
 preserveAspectRatio="xMidYMid meet">
<metadata>
Created by potrace 1.11, written by Peter Selinger 2001-2013
</metadata>
<g transform="translate(0.000000,1224.000000) scale(0.100000,-0.100000)"
fill="#000000" stroke="none">
<path d="M95 10136 c-35 -15 -83 -67 -90 -99 -3 -12 -4 -1629 -3 -3594 l3
-3572 21 -28 c12 -15 36 -37 55 -48 33 -20 52 -20 1099 -20 l1065 0 0 65 0 65
-1053 3 -1052 2 2 3553 3 3552 5975 0 5975 0 3 -3552 2 -3553 -1102 -2 -1103
-3 -3 -68 -3 -67 1118 2 c1098 3 1119 3 1152 23 19 11 43 33 55 48 l21 28 3
3583 2 3583 -22 33 c-13 18 -36 43 -51 54 l-28 21 -6007 2 c-4979 2 -6012 0
-6037 -11z"/>
<path d="M5590 8959 c-606 -22 -1123 -71 -1480 -140 -456 -88 -752 -216 -873
-376 l-42 -57 2 -170 c8 -636 107 -1425 248 -1961 222 -848 581 -1425 1100
-1768 175 -116 456 -236 680 -291 110 -27 268 -54 449 -77 166 -20 191 -21
354 -10 340 23 568 67 849 165 272 95 553 247 756 409 63 51 73 56 160 71 635
115 1451 523 2011 1007 56 47 160 147 231 220 283 290 439 542 527 854 20 69
23 104 23 260 0 155 -3 191 -22 260 -66 242 -206 460 -389 605 -124 99 -221
135 -389 146 -198 13 -425 -30 -753 -142 -90 -31 -166 -53 -169 -50 -4 3 -10
86 -14 184 -15 342 -16 348 -100 433 -205 208 -809 348 -1739 404 -538 32
-979 40 -1420 24z m1220 -374 c823 -50 1373 -166 1429 -304 11 -26 11 -34 -3
-55 -31 -49 -151 -104 -317 -146 -107 -28 -327 -68 -410 -76 l-66 -7 -8 69
c-9 83 -25 119 -65 139 -39 20 -51 20 -251 -14 -236 -40 -363 -50 -791 -57
-233 -5 -376 -11 -389 -18 -40 -20 -59 -58 -66 -129 l-6 -67 -141 0 c-306 0
-840 37 -1161 81 -477 65 -755 160 -755 258 0 165 706 303 1740 341 301 11
957 3 1260 -15z m370 -1640 c0 -547 -2 -995 -4 -995 -3 0 -84 118 -182 263
-97 144 -195 286 -217 315 -75 102 -152 105 -224 9 -22 -28 -120 -171 -219
-317 l-179 -265 -6 70 c-4 39 -10 472 -14 963 l-7 892 158 0 c217 0 512 17
674 39 74 10 154 19 178 20 l42 1 0 -995z m2501 545 c262 -50 386 -332 297
-675 -129 -495 -621 -933 -1273 -1134 -105 -32 -326 -84 -332 -77 -2 2 23 64
55 137 169 382 277 761 347 1214 17 107 33 179 44 195 24 35 226 169 346 229
195 99 376 137 516 111z"/>
<path d="M3377 3479 c-106 -25 -226 -121 -276 -221 -45 -89 -53 -149 -49 -347
3 -167 5 -179 31 -235 60 -130 146 -209 266 -247 119 -36 254 -18 361 51 50
32 100 83 100 101 0 6 -23 35 -51 65 -56 58 -84 67 -113 35 -10 -11 -40 -29
-69 -41 -112 -49 -233 -9 -286 94 -23 44 -26 64 -29 181 -7 212 21 290 121
340 66 33 134 33 203 1 28 -13 55 -29 58 -35 4 -6 16 -16 27 -21 17 -9 28 -3
79 46 33 31 60 65 60 74 0 22 -76 92 -129 119 -88 46 -212 62 -304 40z"/>
<path d="M5530 3477 c-52 -15 -135 -68 -150 -97 -17 -33 -30 -23 -30 23 0 24
-5 48 -12 55 -15 15 -132 16 -159 2 -18 -10 -19 -29 -19 -683 0 -510 3 -676
12 -685 16 -16 180 -16 196 0 9 9 12 70 12 215 l0 202 55 -38 c70 -49 125 -64
217 -60 182 10 336 156 367 349 13 80 14 283 1 369 -27 191 -189 346 -371 357
-44 2 -93 -1 -119 -9z m174 -227 c45 -31 85 -87 97 -137 12 -53 11 -272 -2
-331 -38 -180 -277 -225 -384 -74 l-30 44 -3 171 c-2 108 1 186 8 210 14 49
65 105 115 129 57 27 150 21 199 -12z"/>
<path d="M6655 3481 c-54 -14 -104 -42 -145 -82 l-40 -39 0 33 c0 18 -7 43
-16 55 -13 19 -24 22 -84 22 -49 0 -73 -4 -84 -16 -14 -14 -16 -89 -16 -683 0
-505 3 -670 12 -679 16 -16 180 -16 196 0 9 9 12 71 12 216 l0 204 49 -37 c71
-52 127 -68 219 -63 184 8 341 153 372 343 13 79 13 303 0 384 -31 187 -191
337 -371 346 -41 2 -87 1 -104 -4z m163 -234 c23 -14 54 -48 69 -74 27 -46 28
-55 32 -199 4 -189 -9 -243 -69 -298 -52 -46 -81 -58 -151 -59 -71 0 -137 35
-177 95 -26 40 -27 46 -30 212 -2 107 1 185 8 209 14 49 65 105 115 129 59 27
150 21 203 -15z"/>
<path d="M7670 3474 c-163 -44 -284 -184 -311 -364 -15 -95 -6 -308 15 -377
37 -117 140 -229 256 -275 49 -19 78 -22 253 -26 145 -3 202 -1 212 8 19 16
21 160 3 178 -8 8 -57 12 -154 12 -166 0 -234 11 -287 46 -42 28 -87 108 -87
157 l0 27 298 0 299 0 22 24 c22 24 23 30 19 158 -4 125 -6 137 -37 201 -91
189 -299 285 -501 231z m206 -213 c51 -23 98 -80 114 -137 22 -77 27 -75 -207
-72 -233 3 -224 0 -203 77 13 49 59 105 109 131 47 25 133 25 187 1z"/>
<path d="M8970 3459 c-25 -11 -77 -44 -116 -74 l-72 -54 -6 48 c-11 80 -23 85
-201 89 -99 2 -161 -1 -174 -8 -19 -9 -21 -20 -21 -93 0 -51 5 -88 12 -95 7
-7 44 -12 95 -12 l83 0 0 -310 0 -310 -72 0 c-40 0 -80 -4 -88 -10 -18 -11
-26 -133 -11 -173 l11 -27 292 2 293 3 3 88 c2 57 -1 94 -9 103 -8 10 -37 14
-105 14 l-94 0 0 229 0 228 75 59 c105 83 148 104 211 104 74 0 84 13 84 106
0 105 -6 114 -83 114 -41 0 -77 -7 -107 -21z"/>
<path d="M4038 3459 c-17 -9 -18 -37 -18 -359 0 -220 4 -369 11 -402 25 -116
89 -202 187 -250 60 -30 75 -33 157 -33 104 0 151 18 229 86 l46 41 0 -40 c0
-61 17 -72 114 -72 50 0 87 5 94 12 17 17 17 999 0 1016 -14 14 -166 16 -188
2 -13 -8 -16 -62 -20 -347 -3 -221 -9 -347 -17 -364 -37 -83 -111 -129 -208
-129 -70 0 -107 13 -141 52 -41 45 -44 77 -44 429 0 294 -2 340 -16 353 -18
19 -157 22 -186 5z"/>
</g>
</svg>
