<svg xmlns:rdf="http://www.w3.org/1999/02/22-rdf-syntax-ns#" xmlns="http://www.w3.org/2000/svg" version="1.1" xmlns:cc="http://creativecommons.org/ns#" xmlns:dc="http://purl.org/dc/elements/1.1/" viewBox="0 0 100 100">
 <g transform="translate(0 -952.36)">
  <g transform="matrix(.094248 0 0 .094248 2.8805 955.24)"></g>
  <g transform="matrix(.18832 0 0 .18832 4.2017 956.56)"></g>
  <path style="fill:#000000" d="m41.401 1047.9c-15.184-3.4313-27.055-14.514-32.097-29.968-1.8896-5.7912-2.2419-8.3552-2.2419-16.315 0-7.7133.34205-10.428 1.9973-15.851 4.3432-14.23 14.797-24.477 28.855-28.282 3.1637-.85642 4.4999-1.004 10.407-1.1488 7.5416-.18488 10.196.16319 16.09 2.1095 13.258 4.3784 23.204 15.449 26.86 29.898 5.55 21.931-3.0849 44.309-21.234 55.029-2.6091 1.5413-6.3812 3.0931-9.7867 4.0263-3.6468.9992-15.279 1.3093-18.85.5024zm13.609-11.258c5.0503-2.4708 8.4981-9.4275 9.9833-20.143.76151-5.4946.67497-24.895-.13378-29.989-1.7607-11.09-5.0434-17.485-10.15-19.773-2.7736-1.2429-7.3443-1.2343-9.8983.0188-3.9487 1.937-7.0286 6.5962-8.6902 13.147-1.6506 6.5069-1.8367 8.7982-1.8225 22.442.01131 10.842.11812 13.461.67338 16.515 1.9995 10.997 5.6512 16.945 11.401 18.571 2.5076.7089 6.2822.3649 8.637-.7872z"/>
 </g>
</svg>
