<svg xmlns:rdf="http://www.w3.org/1999/02/22-rdf-syntax-ns#" xmlns="http://www.w3.org/2000/svg" version="1.1" xmlns:cc="http://creativecommons.org/ns#" xmlns:dc="http://purl.org/dc/elements/1.1/" viewBox="0 0 100 100">
 <g transform="translate(0 -952.36)">
  <g transform="matrix(.094248 0 0 .094248 2.8805 955.24)">
   <g>
    <path d="m48.1 445c28.7-226.6 183.3-432.1 460.4-435 167.2 3.3 304.8 79 386.7 223.5 41.1 75.4 54 154.6 56.6 242.1v102.8h-614.7c2.9 253.5 373.1 244.9 532.5 133.2v206.4c-93.4 56.1-305.2 106.2-469.2 41.7-139.7-52.4-239.2-198.6-238.6-339.3-4.6-182.4 90.7-303.1 238.6-371.8-31.4 38.8-55.3 81.7-67.7 156h347.1s20.3-207.4-196.5-207.4c-204.4 7-351.8 125.9-435.2 247.8z"/>
   </g>
  </g>
 </g>
</svg>
