<svg height="41.667" width="41.667" viewBox="0 0 41.667306 41.66729">
 <g transform="translate(-37.035 -1004.6)">
  <path style="stroke-linejoin:round;stroke:currentColor;stroke-linecap:round;stroke-width:3.728;fill:none" d="m76.25 1030.2a18.968 18.968 0 0 1 -23.037 13.709 18.968 18.968 0 0 1 -13.738 -23.019 18.968 18.968 0 0 1 23.001 -13.768 18.968 18.968 0 0 1 13.798 22.984"/>
  <g transform="matrix(1.1146 0 0 1.1146 -26.276 -124.92)">
   <path style="stroke:currentColor;stroke-linecap:round;stroke-width:3.728;fill:none" d="m75.491 1039.5v-8.7472"/>
   <path style="stroke-width:0;fill:currentColor" transform="scale(-1)" d="m-73.193-1024.5a2.3719 2.3719 0 0 1 -2.8807 1.7142 2.3719 2.3719 0 0 1 -1.718 -2.8785 2.3719 2.3719 0 0 1 2.8763 -1.7217 2.3719 2.3719 0 0 1 1.7254 2.8741"/>
  </g>
 </g>
</svg>
